<svg xmlns="http://www.w3.org/2000/svg" width="360" height="360" viewBox="0 0 360 360">
  <defs>
    <style>
      .cls-1 {
        fill: #00a4ff;
        fill-rule: evenodd;
      }
    </style>
  </defs>
  <path id="形状_1" data-name="形状 1" class="cls-1" d="M309.06,317.532c0.763,12.99-3.043,30.184-8.686,31.21-9.464,1.721-146.264-1.72-156.589,1.721-10.611,3.537-1.569-47.358,6.023-42.044,3.49,2.443,24.782,3.089,50.538,2.576,8.454-31.2-2.151-53.871-7.758-66.658-39.512,42.228-66.009,49.427-70.588,50-6.883.86-35-23.026-35-23.026,120.453-12.045,137.661-111.846,137.661-111.846L261,150.34c-20.611,34.662-39.786,61.045-56.925,81.126,10.054,12.675,18.1,51.866,19.654,78.8,31.943-1.335,64.669-4.011,76.645-7,5.446-1.362,8.062,5.2,8.652,13.745C529.247,170.126,280,222.338,280,222.338L260.936,150C546.09,163.718,353.408,292.121,309.06,317.532Z" transform="translate(-70.422 -70.328)"/>
</svg>
